<?xml version="1.0" encoding="utf-8"?>
<!-- Generator: Adobe Illustrator 23.0.3, SVG Export Plug-In . SVG Version: 6.00 Build 0)  -->
<svg version="1.1"
	 id="logosvg.com" inkscape:version="0.92.2 5c3e80d, 2017-08-06" sodipodi:docname="Dunkin&apos;.svg" xmlns:cc="http://creativecommons.org/ns#" xmlns:dc="http://purl.org/dc/elements/1.1/" xmlns:inkscape="http://www.inkscape.org/namespaces/inkscape" xmlns:rdf="http://www.w3.org/1999/02/22-rdf-syntax-ns#" xmlns:sodipodi="http://sodipodi.sourceforge.net/DTD/sodipodi-0.dtd" xmlns:svg="http://www.w3.org/2000/svg"
	 xmlns="http://www.w3.org/2000/svg" xmlns:xlink="http://www.w3.org/1999/xlink" x="0px" y="0px" viewBox="0 0 400 300"
	 style="enable-background:new 0 0 400 300;" xml:space="preserve">
<style type="text/css">
	.st0{fill:#FE6D01;}
	.st1{fill:#F40290;}
</style>
<path id="orange" class="st0" d="M202.7,127.4c0.2,1.1,0.2,2.2,0.2,3.3c0,13.5,0,27.1,0,40.6c0,4.2-1.5,7.5-5.4,9.2
	c-4.2,1.8-8.2,1.1-11.6-2c-2.1-1.9-3.7-4.3-5.5-6.6c-4.7-6-9.8-11.8-13.8-18.4c0.1-0.1,0-0.1-0.1-0.2c-0.2,0.3-0.1,0.7-0.1,1
	c0,5.3,0,10.5,0,15.7c0,1.5-0.2,2.9-0.6,4.3c-1.3,4.5-5.1,7.2-9.8,6.9c-5.8-0.4-9.1-3.9-9.5-10c-0.1-0.6-0.1-1.2-0.1-1.8
	c0-13.5,0-27,0-40.5c0-4.2,1.6-7.5,5.6-9.2c4.1-1.7,8-1.1,11.4,2c1.8,1.6,3.1,3.8,4.6,5.8c4.5,6.1,9.3,12.1,13.5,18.5
	c0.4,0.7,0.8,1.3,1.5,1.9c0-0.3,0-0.7,0-1c0-5.6,0-11.2,0-16.8c0-2.3,0.4-4.6,1.6-6.6c2.2-3.7,5.6-4.9,9.6-4.5
	C198.9,119.4,202.1,122.6,202.7,127.4z M348.7,125.6c-1-3.4-3.2-5.8-6.8-6.5c-3.8-0.7-7.3-0.2-10,3c-1.8,2.2-2.4,4.8-2.4,7.5
	c0,5.7,0,11.5,0,17.2c0,0.4,0,0.7,0,1.4c-0.7-1.2-1.2-2-1.8-2.9c-5.2-7.6-10.8-14.8-16.3-22.2c-0.7-0.9-1.6-1.7-2.6-2.4
	c-3.5-2.3-7.1-2.5-10.8-0.8c-3.3,1.6-5,4.4-5,8c-0.1,14.2,0,28.5,0,42.7c0,0.3,0.1,0.7,0.1,1c0.4,5.7,3.8,9.3,9.4,9.7
	c3.9,0.3,7.5-1.7,9.2-5.1c0.7-1.5,1.2-3,1.2-4.6c0-5.8,0.1-11.4,0.1-17.1c0-0.3,0-0.7,0-1.1v0c0.1,0,0.1,0,0,0
	c0.6,1,1.1,1.9,1.8,2.8c5.1,7.3,10.9,14,16.3,21c0.4,0.5,1,1.1,1.5,1.5c3.4,2.8,7.3,3.3,11.3,1.6c3.9-1.7,5.4-5,5.4-9.1
	c0-13.5,0-27.1,0-40.7C349.3,128.9,349.2,127.2,348.7,125.6z M80,138.9c4,11.1,2.7,21.7-5.2,31c-4.8,5.7-11.3,8.7-18.6,9.7
	c-6.7,1-13.5,0.3-20.3,0.4c-0.3,0-0.7-0.1-1-0.2c-5.3-0.9-9-5.3-9-10.6c0-12.8,0-25.6,0-38.3c0-6,4.6-10.8,10.7-10.9
	c2.7,0,5.4,0,8.5,0c3.5,0.1,7.5-0.3,11.5,0.5C67.6,122.6,76.1,128.1,80,138.9z M62.1,150.1c0.1-5.6-3.6-10-9.2-10.7
	c-2.1-0.3-4.1-0.1-6.2-0.2c-0.8-0.1-1,0.2-1,1c0.1,3.3,0.1,6.6,0.1,9.9c0,3.3,0,6.6,0,9.9c0,0.5-0.1,0.9,0.7,0.9
	c2.1-0.1,4.2,0.1,6.3-0.2C58.3,160,62,155.9,62.1,150.1z M246,150.5c-0.5-0.6-0.5-0.9,0-1.5c3.5-4,7-8,10.4-12.1
	c1.7-2.1,2.8-4.4,3-7.1c0.4-5.9-5.2-11.3-11.1-10.7c-3.4,0.3-5.8,2.2-7.8,4.8c-3.5,4.6-7.2,9-10.8,13.6c0-3,0.1-6,0.1-8.9
	c-0.2-5.8-4.3-9.7-9.9-9.8c-5.7,0-9.9,4-10,9.8c-0.1,14.3-0.1,28.6,0,42.9c0,5.7,4.2,9.8,9.9,9.8c5.6,0.1,9.7-4,9.9-9.8
	c0.2-2.9,0.1-5.7,0.1-8.6c0-0.3-0.2-0.6,0.2-0.8c0.2,0.3,0.3,0.5,0.5,0.7c3.8,4.9,7.8,9.6,11.7,14.4c1.4,1.7,3,2.9,5.1,3.5
	c6,1.8,12.6-3.3,12.8-9.8c0.1-3.1-1-5.6-3-7.9C253.4,158.9,249.7,154.6,246,150.5z M139.7,144.3c0-5.7,0-10.4-0.1-15.2
	c0-0.9,0-1.7-0.2-2.5c-1.1-5.1-5.6-8.3-10.8-7.8c-5.3,0.6-8.9,4.6-8.9,10c0,8.2,0,16.5,0,24.7c0,0.6,0,1.2-0.1,1.8
	c-0.5,4.7-5,7.6-9.1,5.5c-2.6-1.3-3.6-3.6-3.6-6.4c0-8.4,0-16.9,0-25.3c0-6.1-4.1-10.3-9.9-10.4c-5.8,0-9.9,4.2-10,10.2
	c-0.1,8.9,0,17.8,0,26.8c0.1,1.3,0.1,2.5,0.3,3.7c1.4,9.4,6.3,16.2,15.2,19.8c5,2.1,10.2,2.4,15.5,1.7c12-1.5,20.9-11,21.6-23
	C139.9,153.1,139.6,148.2,139.7,144.3z M283,121.3c-3.3-2.9-7.1-3.4-11.1-1.7c-3.8,1.7-5.5,4.9-5.6,9c-0.1,7.1,0,14.2,0,21.3
	c0,7.3,0,14.4-0.1,21.6c0,5.6,4.1,9.5,9.8,9.7c5.4,0.2,9.9-3.9,10-9.4c0.1-14.6,0.1-29.2,0-43.8C286,125.4,285,123,283,121.3z"/>
<path id="pink" inkscape:connector-curvature="0" class="st1" d="M355.5,133.2c-0.1-2.4,0-4.8,0.5-7.2c1.1-5,5.3-7.8,10.4-7
	c4.9,0.8,8.1,4.8,7.6,9.8c-0.4,4.1-1.6,8.1-3.2,11.9c-1,2.2-2.4,4-4.8,4.8c-3.9,1.3-8-0.6-9.4-4.5
	C355.6,138.5,355.5,135.8,355.5,133.2L355.5,133.2z"/>
</svg>
