<?xml version="1.0" encoding="utf-8"?>
<!-- Generator: Adobe Illustrator 23.0.3, SVG Export Plug-In . SVG Version: 6.00 Build 0)  -->
<svg version="1.1" id="logosvg.com" xmlns="http://www.w3.org/2000/svg" xmlns:xlink="http://www.w3.org/1999/xlink" x="0px"
	 y="0px" viewBox="0 0 400 300" style="enable-background:new 0 0 400 300;" xml:space="preserve">
<path id="logo" d="M391.2,131.3v-0.8h0h-19.1v0.8h3.2v29.9l-19.4-30.7h-8.3v0.8h3.1v37.8h-5.3l-13.5-40.4l-14,40.4h-5v-37.8h2.9
	v-0.8h-7.5L297.6,162l-11.2-31.5h-7.7v0.8h3.2v37.8c-2.7,0-5.8,0-5.8,0c-2,0-3.6-1.8-3.6-4.6v-5.9c0-4.8-1.7-8.7-7.1-9.5
	c4.5-0.6,7.8-4.6,7.8-8.9c0-5.5-4.1-9.7-12.2-9.7h-12v0.8h3.1v37.8l-6,0l-13.5-40.4l-14,40.4h-2.6v0.8h7.2v-0.8h-3.6l4.2-12.2h13.2
	l4,12.2h-5v0.8c15.3,0,10.5,0,25.5,0l0-0.8h-4.9v-19.6h3.6c4.9,0,7.5,2,7.5,6.9v3.4c0,8.1,5.2,10.1,8,10.1h10.4v-0.8h-3.4v-34.9
	l13.2,36.2l12.5-37.4v36.1h-3.2v0.8h17.3v-0.8h-3.6l4.2-12.2h13.2l4,12.2h-5v0.8h19.3v-0.8h-3.2v-36.5l24.6,38.7v-40h7.4v37.8h-3.2
	v0.8h10.9v-0.8h-3.2v-37.8H391.2z M224,156l6.4-18.9l6.2,18.9H224z M256.6,148.7v-17.4h3c5,0,8.3,3.2,8.3,9.1c0,3.2-2.5,8.3-7.8,8.3
	H256.6z M323.4,156l6.4-18.9L336,156H323.4z M180.8,129.5c-10.3,0-17.1,11.5-17.1,20.7c0,10.1,7.3,20.6,17.1,20.6
	c9.8,0,17.1-9.9,17.1-20.6C197.9,141,190.6,129.5,180.8,129.5z M180.8,170.1c-10.5,0-11-13.7-11-19.9c0-6.1,0.7-19.9,11-19.9
	c10.3,0,11.1,13.7,11.1,19.9C191.9,156.3,191.3,170.1,180.8,170.1z M151.4,130.5h10.9v0.8h-3.2v37.8h3.2v0.8h-10.9v-0.8h3.2v-37.8
	l-3.2,0V130.5z M117.3,169.4c-2,0-3.6-1.8-3.6-4.6v-6.1c0-4.9-1.7-8.7-7.1-9.5c4.5-0.6,7.8-4.6,7.8-8.9c0-5.5-4-9.7-12.2-9.7h-12
	v0.8h3.1v37.8h-3.1v0.8h12.6l0-0.8h-4.9v-19.6h3.6c4.9,0,7.5,2.1,7.5,6.9v3.8c0,8,5.2,10.1,8,10.1c1.8,0,2.6-0.6,3.2-1.1l-0.5-0.7
	C118.7,169.4,117.8,169.4,117.3,169.4z M97.9,148.7v-17.4h3c5,0,8.3,3.2,8.3,9.1c0,3.2-2.5,8.3-7.8,8.3H97.9z M71.6,129.5
	c-10.3,0-17.1,11.5-17.1,20.7c0,10.1,7.3,20.6,17.1,20.6c9.8,0,17.1-9.9,17.1-20.6C88.7,141,81.4,129.5,71.6,129.5z M71.6,170.1
	c-10.5,0-11-13.7-11-19.9c0-6.1,0.7-19.9,11-19.9c10.3,0,11.1,13.7,11.1,19.9C82.7,156.3,82.1,170.1,71.6,170.1z M42.2,130.5H53v0.8
	h-3.2v37.8H53v0.8H42.2v-0.8h3.2v-37.8l-3.2,0V130.5z M30,153.5h11.4v0.8h-3.2v15.6h-0.9c-0.1-1.2-0.9-2.4-2.2-2.4
	c-3.6,0-4,3.4-9.6,3.4c-10.2,0-16.9-11.8-16.9-20.6c0-8.4,6-20.7,17.6-20.7c3.7,0,5.6,2.1,7,2.1c1.5,0,2.4-0.7,2.6-2h0.7v12.1h-0.7
	c-0.9-7.7-5.4-11.4-9.6-11.4c-10.8,0-11.5,13.1-11.5,19.9c0,7.4,0.9,19.9,10.8,19.9c5.2,0,8.2-4.4,8.2-8.3v-7.5H30V153.5z
	 M139.3,153.5h11.4v0.8h-3.2l0,15.6h-0.9c-0.1-1.2-0.9-2.4-2.2-2.4c-3.6,0-4,3.4-9.6,3.4c-10.2,0-16.9-11.8-16.9-20.6
	c0-8.4,6-20.7,17.6-20.7c3.7,0,5.6,2.1,7,2.1c1.5,0,2.4-0.7,2.6-2h0.7v12.1h-0.7c-0.9-7.7-5.4-11.4-9.6-11.4
	c-10.8,0-11.5,13.1-11.5,19.9c0,7.4,0.9,19.9,10.8,19.9c5.2,0,8.2-4.4,8.2-8.3v-7.5h-3.7V153.5z"/>
</svg>
