<?xml version="1.0" encoding="utf-8"?>
<!-- Generator: Adobe Illustrator 23.0.3, SVG Export Plug-In . SVG Version: 6.00 Build 0)  -->
<svg version="1.1"
	 id="logosvg.com" inkscape:version="0.92.3 (2405546, 2018-03-11)" sodipodi:docname="hyundai motor company.svg" xmlns:cc="http://creativecommons.org/ns#" xmlns:dc="http://purl.org/dc/elements/1.1/" xmlns:inkscape="http://www.inkscape.org/namespaces/inkscape" xmlns:rdf="http://www.w3.org/1999/02/22-rdf-syntax-ns#" xmlns:sodipodi="http://sodipodi.sourceforge.net/DTD/sodipodi-0.dtd" xmlns:svg="http://www.w3.org/2000/svg"
	 xmlns="http://www.w3.org/2000/svg" xmlns:xlink="http://www.w3.org/1999/xlink" x="0px" y="0px" viewBox="0 0 400 300"
	 style="enable-background:new 0 0 400 300;" xml:space="preserve">
<style type="text/css">
	.st0{fill:#002E6B;}
</style>
<path id="logo" class="st0" d="M156.1,131.3h8.9v37.4h-8.9v-15H140v15h-8.9v-37.4h8.9v14.2h16.1V131.3z M188.3,146.1l-9.3-14.8
	h-10.5l15.4,24.4v12.9h8.9v-12.9l15.4-24.4h-10.5L188.3,146.1z M236.7,158.7c0,1-0.8,1.9-1.9,1.9h-14.3v-29.3h-8.9v37.4H238
	c2.3,0,4.2-0.7,5.6-2.1c1.4-1.4,2-3.3,2-5.6v-29.7l-8.9,0V158.7z M280.1,131.3L280.1,131.3l-26.3,0v37.4h8.9v-29.3H277
	c1.1,0,1.9,0.9,1.9,1.9v27.4h8.9V139c0-2.3-0.7-4.2-2-5.6C284.3,132,282.5,131.3,280.1,131.3z M327.9,133.4c1.4,1.4,2.1,3.2,2.1,5.6
	V161c0,2.3-0.7,4.2-2.1,5.6c-1.4,1.4-3.2,2.1-5.6,2.1H296v-37.4h26.3C324.6,131.3,326.5,132,327.9,133.4z M321,141.3
	c0-1.1-0.8-1.9-2-1.9h-14.2v21.2h14.3c1.2,0,1.9-0.9,1.9-1.9V141.3z M345.4,131.3h26.3v37.4h-8.9v-11.6h-16.2v11.6h-8.9V139
	c0-2.3,0.7-4.2,2-5.6C341.2,132,343.1,131.3,345.4,131.3z M346.7,149h16.2v-9.6l-14.3,0c-1.2,0-1.9,1-1.9,1.9V149z M380.3,131.3
	v37.4h8.9v-37.4H380.3z M112.4,150c0,14.4-22.8,26-50.8,26c-28.1,0-50.8-11.7-50.8-26c0-14.4,22.8-26,50.8-26
	C89.7,124,112.4,135.6,112.4,150z M59.3,146.4c4.4-0.9,8.6-2.5,12-3.8c9.6-3.7,14.7-7.3,16.3-8.8c0.2-0.2,0.4-0.3,0.5-0.4
	c0.2-0.2,0.4-0.5,0.4-0.8c0-0.4-0.3-0.7-1-0.9c-0.1,0-0.2-0.1-0.3-0.1c-7.3-2.2-16-3.5-25.4-3.5c-0.1,0-0.2,0-0.5,0
	c-1.1,0-2.4,0.3-3.4,0.8c-3.3,1.7-4.8,5.9-5.7,7.8v0C47.1,148.4,56.7,147,59.3,146.4z M26.7,162.1c2-4.5,8.8-20.1,17.8-30.7
	c0.2-0.2,0.3-0.4,0.4-0.6c0.2-0.4,0.2-0.6,0-0.8c-0.3-0.3-1-0.3-2-0.1l0,0c-16.5,3.4-28,11.1-28,20.1c0,5,3.5,9.6,9.5,13.2
	c0.5,0.3,0.8,0.4,1.1,0.3c0.4,0,0.7-0.3,0.8-0.6C26.5,162.8,26.6,162.5,26.7,162.1z M64.1,153.5c-4.4,0.9-8.6,2.5-12,3.8
	c-9.6,3.7-14.6,7.4-16.3,8.8c-0.2,0.2-0.4,0.3-0.5,0.4c-0.2,0.2-0.4,0.5-0.4,0.8c0,0.4,0.3,0.7,1,0.9c0.1,0,0.2,0.1,0.3,0.1
	c7.3,2.2,16,3.5,25.4,3.5c0.1,0,0.3,0,0.5,0c1.1,0,2.4-0.3,3.4-0.8c3.3-1.7,4.8-5.9,5.7-7.8v0C76.2,151.5,66.6,153,64.1,153.5z
	 M108.3,150c0-5-3.5-9.6-9.5-13.2c-0.5-0.3-0.8-0.4-1.1-0.3c-0.4,0-0.7,0.3-0.9,0.6l0,0c-0.1,0.2-0.3,0.5-0.4,0.8
	c-1.9,4.5-8.8,20.1-17.8,30.7c-0.2,0.3-0.3,0.4-0.4,0.6c-0.2,0.4-0.2,0.6,0,0.8c0.2,0.3,0.9,0.3,2,0.1
	C96.7,166.7,108.3,159,108.3,150z"/>
</svg>
