<?xml version="1.0" encoding="utf-8"?>
<!-- Generator: Adobe Illustrator 23.0.3, SVG Export Plug-In . SVG Version: 6.00 Build 0)  -->
<svg version="1.1"
	 id="logosvg.com" xmlns:cc="http://creativecommons.org/ns#" xmlns:dc="http://purl.org/dc/elements/1.1/" xmlns:rdf="http://www.w3.org/1999/02/22-rdf-syntax-ns#"
	 xmlns="http://www.w3.org/2000/svg" xmlns:xlink="http://www.w3.org/1999/xlink" x="0px" y="0px" viewBox="0 0 400 300"
	 style="enable-background:new 0 0 400 300;" xml:space="preserve">
<style type="text/css">
	.st0{fill:#131E29;}
</style>
<path id="logo" class="st0" d="M226.8,180.2c0,0.6,0.2,1,0.6,1c0.3,0,0.6-0.2,0.8-0.3l104-67.5c1.8-1.2,3.9-1.9,6-1.8H361
	c3.5,0,5.9,2.3,5.9,5.8V161c0,5.3-1.2,8.3-5.8,11.1l-27.7,16.7c-0.3,0.2-0.6,0.3-0.9,0.3c-0.3,0-0.7-0.3-0.7-1.2V137
	c0-0.6-0.2-1-0.6-1c-0.3,0-0.6,0.1-0.8,0.3l-76,49.4c-1.7,1.2-3.8,1.8-5.8,1.8h-50.4c-3.5,0-5.9-2.3-5.9-5.9v-62.9
	c0-0.5-0.2-0.9-0.6-0.9c-0.3,0-0.6,0.2-0.8,0.3l-50.2,30.1c-0.5,0.3-0.6,0.6-0.6,0.8c0,0.2,0.1,0.4,0.4,0.8l35.8,35.8
	c0.5,0.5,0.8,0.8,0.8,1.2c0,0.3-0.5,0.6-1.2,0.6h-32.4c-2.5,0-4.5-0.4-5.9-1.7l-21.7-21.7c-0.2-0.2-0.4-0.3-0.7-0.3
	c-0.2,0-0.5,0.1-0.7,0.2l-36.3,21.8c-2.2,1.3-3.7,1.7-5.9,1.7H39c-3.6,0-5.9-2.3-5.9-5.8v-42.8c0-5.3,1.2-8.3,5.9-11.1l27.9-16.8
	c0.2-0.1,0.5-0.2,0.7-0.2c0.4,0,0.7,0.4,0.7,1.4v57.3c0,0.6,0.1,0.9,0.6,0.9c0.3,0,0.6-0.2,0.8-0.3l94.3-56.7c1.8-1.2,4-1.8,6.2-1.7
	h50.7c3.5,0,5.9,2.3,5.9,5.8V180.2L226.8,180.2z"/>
</svg>
