<?xml version="1.0" encoding="utf-8"?>
<!-- Generator: Adobe Illustrator 23.0.3, SVG Export Plug-In . SVG Version: 6.00 Build 0)  -->
<svg version="1.1" id="logosvg.com" xmlns="http://www.w3.org/2000/svg" xmlns:xlink="http://www.w3.org/1999/xlink" x="0px"
	 y="0px" viewBox="0 0 400 300" style="enable-background:new 0 0 400 300;" xml:space="preserve">
<style type="text/css">
	.st0{fill:#FF0000;}
</style>
<path id="logo" class="st0" d="M60,164.7l3.5-14.7l2.8,14.7H60z M33.5,151.7c0,4.2-1.7,7-6.8,8.6v-12.7c1-0.3,2-0.5,3-0.5
	C32.4,147.1,33.5,149.2,33.5,151.7z M137,162l4-18.1l3.8,18.1H137z M103.2,136.1c4.3,0,5.9,2.3,5.9,6.2c0,4.2-2.2,7.7-6.9,9.1v-15.3
	H103.2z M356.5,150.1c0-1.3,0.9-2,2.5-2c3,0,8.5,3.1,11.8,5.8v-12.8c-4-2.7-8.9-4.7-14.2-4.7c-8.7,0-14,5.1-14,13.9
	c0,15,16.5,15,16.5,20c0,1.6-0.9,2.3-3.3,2.3c-4.9,0-11.1-3.3-13.2-5.3v13.5c4,2.3,9.7,3.8,14.7,3.8c9.9,0,15.7-5.5,15.7-14.4
	C373,155.5,356.5,154.8,356.5,150.1L356.5,150.1z M47.4,149.8c0-10.5-6.5-14.6-15.1-14.6c-5.8,0-12.4,1.9-18.8,4.9v43.2h13.2v-10.4
	C37.8,170.7,47.4,162.4,47.4,149.8z M226.3,132.6c6.1,0,8.9,6.3,8.9,17.4s-2.8,17.4-8.9,17.4c-6.1,0-8.9-6.3-8.9-17.4
	S220.2,132.6,226.3,132.6z M40.7,183.3h14.1l2-7h12.1l1.7,7h14.7l-15-56.8c-4.3,0.4-9.1,1.2-12.7,2.2L40.7,183.3z M311.1,126
	c-3.6-0.7-7.6-1.5-10.5-1.7v58.9h13.5V159l14.3,24.3h10.4v-51.5c-4.3-1.2-8.5-2-13-2.8v25.3L311.1,126z M124.3,141
	c0-12.3-6.9-19.2-21.2-19.2c-4.6,0-10.8,0.7-15.7,2.2v59.3h15v-16C115,163.4,124.3,154.2,124.3,141z M269.9,146.3v-25.7
	c-3.8-0.7-11.3-1.5-15.1-1.6v64.2h15.1v-23h9.9v23h15.1v-59.6c-4.7-0.8-10.5-1.6-15.1-2v24.7C279.8,146.3,269.9,146.3,269.9,146.3z
	 M115.9,183.3h15.5l2.3-8.9h13.9l2.6,8.9H166l-17.8-65.2c-3.8,0-9.9,0.4-13.4,0.8L115.9,183.3z M182.3,164.7c0,3.6-2,5.1-5,5.1
	c-1.6,0-3.3-0.4-5.1-1.2v14.6c3,1,5.3,1.2,8.5,1.2c8.8,0,17.3-4.5,17.3-18.8v-49.1c-4.3-0.3-11.2-0.3-15.5,0v48.1H182.3z
	 M226.3,184.5c15.4,0,24.9-13.5,24.9-34.5c0-19.1-8.2-34.5-25.3-34.5c-15.1,0-24.4,13.8-24.4,34.5
	C201.4,172.5,210.9,184.5,226.3,184.5z M386.5,150.1c0,1.7-0.6,3-1.8,4.3s-2.6,1.8-4.3,1.8c-1.7,0-3.1-0.6-4.3-1.8
	c-1.2-1.2-1.8-2.6-1.8-4.2c0-1.7,0.6-3,1.8-4.3c1.2-1.2,2.6-1.8,4.3-1.8c1.7,0,3.1,0.6,4.3,1.8S386.5,148.4,386.5,150.1z
	 M385.8,150.2c0-1.6-0.5-2.8-1.6-3.8s-2.3-1.6-3.9-1.6c-1.5,0-2.8,0.5-3.8,1.6c-1,1-1.6,2.3-1.6,3.8s0.5,2.7,1.6,3.8
	s2.3,1.5,3.9,1.5c1.5,0,2.8-0.5,3.8-1.6C385.1,152.8,385.8,151.7,385.8,150.2z M384,153.5h-2.1l-1.9-2.3h-0.4v2.3h-1.8v-6.9h2.6
	c0.9,0,1.7,0.2,2.2,0.6c0.5,0.4,0.7,0.9,0.7,1.7c0,0.4-0.1,0.8-0.3,1.2c-0.2,0.3-0.6,0.6-1,0.8L384,153.5L384,153.5z M380.2,147.9
	h-0.6v2h0.6c0.4,0,0.7-0.1,0.9-0.3c0.2-0.2,0.3-0.4,0.3-0.7s-0.1-0.5-0.3-0.7C380.9,148,380.6,147.9,380.2,147.9z"/>
</svg>
