<?xml version="1.0" encoding="utf-8"?>
<!-- Generator: Adobe Illustrator 23.0.3, SVG Export Plug-In . SVG Version: 6.00 Build 0)  -->
<svg version="1.1"
	 id="logosvg.com" inkscape:version="0.91 r13725" sodipodi:docname="Roblox 2017 Monochrome.svg" xmlns:cc="http://creativecommons.org/ns#" xmlns:dc="http://purl.org/dc/elements/1.1/" xmlns:inkscape="http://www.inkscape.org/namespaces/inkscape" xmlns:rdf="http://www.w3.org/1999/02/22-rdf-syntax-ns#" xmlns:sodipodi="http://sodipodi.sourceforge.net/DTD/sodipodi-0.dtd" xmlns:svg="http://www.w3.org/2000/svg"
	 xmlns="http://www.w3.org/2000/svg" xmlns:xlink="http://www.w3.org/1999/xlink" x="0px" y="0px" viewBox="0 0 400 300"
	 style="enable-background:new 0 0 400 300;" xml:space="preserve">
<path id="logo" inkscape:connector-curvature="0" d="M95.6,119.9l-12.4,47.8l47.8,12.4l12.4-47.8L95.6,119.9z M26.9,125.2v49.6h21.9
	v-18.3c3.1,0,5.4,1.5,6.8,4.5c1.5,3,2.4,7.6,2.8,13.9h22.8c-1-9.7-4.2-17.6-9.6-23.7c3.8-2.6,5.7-6.3,5.7-11c0-4.2-1.6-7.8-4.8-10.6
	c-3.2-2.8-7.6-4.3-13.2-4.3H26.9z M148.3,125.2v49.6h34.6c5.4,0,9.5-1.2,12.5-3.7c3-2.5,4.5-5.8,4.5-10c0-2.7-0.7-4.9-2-6.7
	c-1.3-1.8-3.3-3.4-5.8-4.7c4.3-2.4,6.5-6,6.5-10.7c0-4.3-1.6-7.6-4.9-10.1c-3.2-2.5-8-3.7-14.4-3.7H148.3L148.3,125.2z M206.5,125.2
	v49.6h41.2v-12.4h-19.2v-37.1C228.5,125.2,206.5,125.2,206.5,125.2z M309.8,125.2l19.4,24.5l-19.4,25.1h23.8l7.6-9.8l7.9,9.8h24
	l-19.9-25.2l18.7-24.4h-23.8l-7,9.1l-7.3-9.1H309.8L309.8,125.2z M254.5,125.3v49.4h49.4v-49.4C303.9,125.3,254.5,125.3,254.5,125.3
	z M170.3,135.2h1.3c3.9,0,5.8,1.6,5.8,4.8c0,1.8-0.5,3-1.5,3.8c-1,0.7-2.7,1.1-5.1,1.1h-0.6C170.3,144.8,170.3,135.2,170.3,135.2z
	 M48.8,135.4h1.3c1.9,0,3.2,0.5,4,1.5c0.8,1,1.2,2.1,1.2,3.4c0,3.1-2,4.6-5.9,4.6h-0.6C48.8,145,48.8,135.4,48.8,135.4z
	 M109.9,144.2l9.2,2.4l-2.4,9.2l-9.2-2.4C107.5,153.4,109.9,144.2,109.9,144.2z M274.4,145.2h9.5v9.5h-9.5V145.2z M170.3,153.2h1.5
	c4.1,0,6.1,1.9,6.1,5.6c0,1.9-0.5,3.2-1.6,4c-1.1,0.8-2.8,1.1-5.4,1.1h-0.7V153.2z"/>
</svg>
