<svg xmlns="http://www.w3.org/2000/svg" width="114.85" height="41" viewBox="0 0 114.85 41"><g transform="translate(-225 -6)"><rect width="114.85" height="41" rx="7" transform="translate(225 6)" fill="#fff"/><path d="M7,1.5A5.506,5.506,0,0,0,1.5,7V34A5.506,5.506,0,0,0,7,39.5H107.85a5.506,5.506,0,0,0,5.5-5.5V7a5.506,5.506,0,0,0-5.5-5.5H7M7,0H107.85a7,7,0,0,1,7,7V34a7,7,0,0,1-7,7H7a7,7,0,0,1-7-7V7A7,7,0,0,1,7,0Z" transform="translate(225 6)" fill="#1d53ff"/><path d="M5.12.192a4.185,4.185,0,0,0,2.3-.624A3.518,3.518,0,0,0,8.8-1.952l-1.248-.64a3.151,3.151,0,0,1-.96,1.024,2.541,2.541,0,0,1-1.456.4A2.8,2.8,0,0,1,3.8-1.5a2.69,2.69,0,0,1-1.008-.936,2.8,2.8,0,0,1-.424-1.44H8.96a4.414,4.414,0,0,0,.08-.8,4.386,4.386,0,0,0-.48-2.016A3.95,3.95,0,0,0,7.176-8.224a3.9,3.9,0,0,0-2.184-.592,4.033,4.033,0,0,0-2.144.576,4.138,4.138,0,0,0-1.5,1.592A4.764,4.764,0,0,0,.8-4.336a4.755,4.755,0,0,0,.56,2.32A4.223,4.223,0,0,0,2.9-.4,4.2,4.2,0,0,0,5.12.192Zm-.128-7.68a2.47,2.47,0,0,1,1.2.3,2.372,2.372,0,0,1,.88.824,2.32,2.32,0,0,1,.352,1.216H2.4a2.661,2.661,0,0,1,.9-1.712A2.546,2.546,0,0,1,4.992-7.488ZM9.84,0h1.824l2.1-3.088L15.856,0h1.792L14.656-4.32l3.008-4.3H15.856l-2.1,3.072L11.648-8.624H9.856l3.008,4.3Zm9.152,3.2H20.48V-1.2A3.256,3.256,0,0,0,21.752-.168a4,4,0,0,0,1.7.36,4.131,4.131,0,0,0,2.2-.592,4.259,4.259,0,0,0,1.528-1.608,4.676,4.676,0,0,0,.56-2.3,4.71,4.71,0,0,0-.56-2.312,4.279,4.279,0,0,0-1.52-1.608,4.09,4.09,0,0,0-2.192-.592,3.967,3.967,0,0,0-1.752.376,3.455,3.455,0,0,0-1.272,1.032V-8.624H18.992Zm4.352-4.448a2.742,2.742,0,0,1-1.456-.4,2.836,2.836,0,0,1-1.032-1.1A3.229,3.229,0,0,1,20.48-4.3a3.216,3.216,0,0,1,.376-1.568,2.912,2.912,0,0,1,1.032-1.1,2.7,2.7,0,0,1,1.456-.408,2.65,2.65,0,0,1,1.448.4,2.838,2.838,0,0,1,1,1.1A3.32,3.32,0,0,1,26.16-4.3a3.285,3.285,0,0,1-.368,1.56,2.838,2.838,0,0,1-1,1.1A2.65,2.65,0,0,1,23.344-1.248ZM33.664.192a4.185,4.185,0,0,0,2.3-.624,3.518,3.518,0,0,0,1.376-1.52L36.1-2.592a3.151,3.151,0,0,1-.96,1.024,2.541,2.541,0,0,1-1.456.4A2.8,2.8,0,0,1,32.344-1.5a2.69,2.69,0,0,1-1.008-.936,2.8,2.8,0,0,1-.424-1.44H37.5a4.414,4.414,0,0,0,.08-.8,4.386,4.386,0,0,0-.48-2.016A3.95,3.95,0,0,0,35.72-8.224a3.9,3.9,0,0,0-2.184-.592,4.033,4.033,0,0,0-2.144.576,4.138,4.138,0,0,0-1.5,1.592,4.764,4.764,0,0,0-.552,2.312,4.755,4.755,0,0,0,.56,2.32A4.223,4.223,0,0,0,31.44-.4,4.2,4.2,0,0,0,33.664.192Zm-.128-7.68a2.47,2.47,0,0,1,1.2.3,2.372,2.372,0,0,1,.88.824,2.32,2.32,0,0,1,.352,1.216H30.944a2.661,2.661,0,0,1,.9-1.712A2.546,2.546,0,0,1,33.536-7.488ZM39.52,0h1.488V-5.136a2.193,2.193,0,0,1,.56-1.608,1.975,1.975,0,0,1,1.472-.568h.752V-8.72h-.528a3.12,3.12,0,0,0-1.376.28,2.132,2.132,0,0,0-.912.84V-8.624H39.52ZM48.7.1q.176,0,.432-.016A2.866,2.866,0,0,0,49.6.016V-1.312l-.3.032q-.16.016-.288.016A1.379,1.379,0,0,1,47.9-1.656,1.58,1.58,0,0,1,47.568-2.7V-7.2H49.5V-8.624H47.568v-1.984H46.08v.7a1.282,1.282,0,0,1-.336.936,1.216,1.216,0,0,1-.912.344h-.32V-7.2H46.08v4.544a2.844,2.844,0,0,0,.68,2.032A2.546,2.546,0,0,0,48.7.1Z" transform="translate(271.898 30.866)" fill="#1d53ff"/><path d="M34.732,26.373l-2.111,6.655c0-.51-1.456-11.547-1.456-11.547-3.349,0-5.126,2.374-6.058,4.893L22.53,33.042c0-.481-.364-6.611-.364-6.611a5.446,5.446,0,0,0-5.286-4.936l2.738,16.716c3.495,0,5.388-2.374,6.363-4.893l2.184-5.679c0,.233,1.456,10.572,1.456,10.572a6.727,6.727,0,0,0,6.407-4.7L40.979,21.48c-3.495,0-5.329,2.374-6.261,4.893Z" transform="translate(223.07 -3.346)" fill="#1d53ff"/></g></svg>